<?xml version="1.0" encoding="UTF-8"?>
<svg id="Layer_1" data-name="Layer 1" xmlns="http://www.w3.org/2000/svg" viewBox="0 0 108 135">
  <defs>
    <style>
      .cls-1 {
        fill: #f3efe6;
        font-family: Montserrat-Bold, Montserrat;
        font-size: 23.11px;
        font-weight: 700;
        opacity: .85;
      }

      .cls-1, .cls-2, .cls-3, .cls-4 {
        isolation: isolate;
      }

      .cls-2 {
        opacity: .12;
      }

      .cls-2, .cls-3 {
        fill: #0c0c0c;
      }

      .cls-3 {
        opacity: .16;
      }

      .cls-4 {
        fill: none;
        opacity: .7;
        stroke: #f3efe6;
        stroke-width: .3px;
      }
    </style>
  </defs>
  <circle class="cls-2" cx="58.52" cy="75.32" r="28.18"/>
  <polygon class="cls-3" points="86.7 75.32 82.47 81.75 82.93 89.41 76.05 92.85 72.61 99.73 64.95 99.28 58.52 103.5 52.09 99.28 44.43 99.73 40.99 92.85 34.12 89.41 34.57 81.75 30.34 75.32 34.57 68.9 34.12 61.23 40.99 57.79 44.43 50.92 52.09 51.37 58.52 47.14 64.95 51.37 72.61 50.92 76.05 57.79 82.93 61.23 82.47 68.9 86.7 75.32"/>
  <circle class="cls-4" cx="58.52" cy="75.32" r="20.85"/>
  <text class="cls-1" transform="translate(49.45 82.65)"><tspan x="0" y="0">®</tspan></text>
</svg>