<?xml version="1.0" encoding="UTF-8"?>
<svg id="Layer_1" data-name="Layer 1" xmlns="http://www.w3.org/2000/svg" xmlns:xlink="http://www.w3.org/1999/xlink" viewBox="0 0 108 135">
  <defs>
    <style>
      .cls-1, .cls-2, .cls-3, .cls-4, .cls-5, .cls-6, .cls-7, .cls-8, .cls-9, .cls-10, .cls-11, .cls-12, .cls-13 {
        fill: none;
      }

      .cls-14, .cls-15, .cls-16, .cls-17, .cls-18, .cls-19, .cls-20, .cls-21, .cls-22, .cls-23, .cls-24, .cls-2, .cls-25, .cls-26, .cls-27, .cls-28, .cls-29, .cls-30, .cls-31, .cls-32, .cls-12 {
        isolation: isolate;
      }

      .cls-14, .cls-17 {
        fill: url(#htD_3);
      }

      .cls-14, .cls-12 {
        opacity: .7;
      }

      .cls-15 {
        fill: url(#htC_4);
      }

      .cls-15, .cls-16, .cls-17, .cls-18, .cls-23, .cls-24 {
        opacity: .9;
      }

      .cls-16 {
        fill: url(#htB_4);
      }

      .cls-18 {
        fill: url(#htA_3);
      }

      .cls-19, .cls-30 {
        opacity: .65;
      }

      .cls-19, .cls-33 {
        fill: #0c0c0c;
      }

      .cls-20 {
        fill: url(#htC_4-2);
      }

      .cls-20, .cls-21, .cls-22 {
        opacity: .85;
      }

      .cls-21 {
        fill: url(#htC_4-3);
      }

      .cls-22 {
        fill: url(#htD_3-2);
      }

      .cls-23 {
        fill: url(#htD_3-3);
      }

      .cls-24 {
        fill: url(#htD_3-4);
      }

      .cls-34 {
        stroke: #b8b4ac;
        stroke-width: .1px;
      }

      .cls-34, .cls-4, .cls-6, .cls-8, .cls-13 {
        stroke-miterlimit: 4;
      }

      .cls-34, .cls-35 {
        fill: #d4d0c8;
      }

      .cls-36, .cls-28, .cls-29, .cls-30 {
        fill: #1e1e1e;
      }

      .cls-2 {
        opacity: .5;
        stroke: #444;
        stroke-width: .1px;
      }

      .cls-2, .cls-5, .cls-12 {
        stroke-miterlimit: 4;
      }

      .cls-25, .cls-26, .cls-27, .cls-37 {
        fill: #e8e4de;
      }

      .cls-25, .cls-32 {
        opacity: .45;
      }

      .cls-26 {
        opacity: .6;
      }

      .cls-27, .cls-28 {
        opacity: .52;
      }

      .cls-3 {
        stroke-width: .5px;
      }

      .cls-3, .cls-6, .cls-7, .cls-8, .cls-9, .cls-10, .cls-11, .cls-12, .cls-13 {
        stroke: #0c0c0c;
        stroke-linecap: round;
      }

      .cls-29 {
        opacity: .38;
      }

      .cls-4 {
        stroke: #c8c0b4;
      }

      .cls-4, .cls-13 {
        stroke-width: .15px;
      }

      .cls-31 {
        opacity: .42;
      }

      .cls-31, .cls-32, .cls-38 {
        fill: #b32600;
      }

      .cls-39 {
        fill: #2a2a2a;
      }

      .cls-40 {
        fill: #c8a96e;
      }

      .cls-5 {
        stroke: #333;
        stroke-width: .15px;
      }

      .cls-6 {
        stroke-width: .5px;
      }

      .cls-7 {
        stroke-width: .9px;
      }

      .cls-7, .cls-9, .cls-10, .cls-11 {
        stroke-miterlimit: 4;
      }

      .cls-41 {
        fill: #333;
      }

      .cls-8 {
        stroke-width: .18px;
      }

      .cls-9 {
        stroke-width: .3px;
      }

      .cls-10 {
        stroke-width: .32px;
      }

      .cls-11 {
        stroke-width: .25px;
      }

      .cls-42 {
        fill: #1a1a1a;
      }

      .cls-12 {
        stroke-width: .4px;
      }

      .cls-43 {
        fill: #222;
      }
    </style>
    <pattern id="htA_3" data-name="htA 3" x="0" y="0" width=".7" height=".7" patternTransform="translate(-4176.05 2332.38) rotate(28) scale(1 -1)" patternUnits="userSpaceOnUse" viewBox="0 0 .7 .7">
      <g>
        <rect class="cls-1" x="0" width=".7" height=".7"/>
        <circle class="cls-33" cx=".35" cy=".35" r=".28"/>
      </g>
    </pattern>
    <pattern id="htB_4" data-name="htB 4" x="0" y="0" width=".7" height=".7" patternTransform="translate(-4176.05 2332.38) rotate(28) scale(1 -1)" patternUnits="userSpaceOnUse" viewBox="0 0 .7 .7">
      <g>
        <rect class="cls-1" width=".7" height=".7"/>
        <circle class="cls-33" cx=".35" cy=".35" r=".19"/>
      </g>
    </pattern>
    <pattern id="htC_4" data-name="htC 4" x="0" y="0" width=".7" height=".7" patternTransform="translate(-4176.05 2332.38) rotate(28) scale(1 -1)" patternUnits="userSpaceOnUse" viewBox="0 0 .7 .7">
      <g>
        <rect class="cls-1" width=".7" height=".7"/>
        <circle class="cls-33" cx=".35" cy=".35" r=".11"/>
      </g>
    </pattern>
    <pattern id="htD_3" data-name="htD 3" x="0" y="0" width=".7" height=".7" patternTransform="translate(-4176.05 2332.38) rotate(28) scale(1 -1)" patternUnits="userSpaceOnUse" viewBox="0 0 .7 .7">
      <g>
        <rect class="cls-1" width=".7" height=".7"/>
        <circle class="cls-33" cx=".35" cy=".35" r=".05"/>
      </g>
    </pattern>
    <pattern id="htC_4-2" data-name="htC 4" patternTransform="translate(-1466.5 -76.97) rotate(5) scale(1 -1)" xlink:href="#htC_4"/>
    <pattern id="htD_3-2" data-name="htD 3" patternTransform="translate(-1466.5 -76.97) rotate(5) scale(1 -1)" xlink:href="#htD_3"/>
    <pattern id="htD_3-3" data-name="htD 3" patternTransform="translate(-1466.5 -76.97) rotate(5) scale(1 -1)" xlink:href="#htD_3"/>
    <pattern id="htC_4-3" data-name="htC 4" patternTransform="translate(-1466.5 -76.97) rotate(5) scale(1 -1)" xlink:href="#htC_4"/>
    <pattern id="htD_3-4" data-name="htD 3" patternTransform="translate(-1466.5 -76.97) rotate(5) scale(1 -1)" xlink:href="#htD_3"/>
  </defs>
  <g>
    <path class="cls-3" d="M76.07,115.29c2.67-1.78,5-3.67,7-5.67"/>
    <g>
      <path class="cls-7" d="M52.64,121.54c7.82-3.55,16.01-5.59,24.57-6.13"/>
      <path class="cls-9" d="M53.86,120.89c-1.4-2.86-2.69-5.28-3.87-7.28"/>
      <path class="cls-9" d="M55.63,119.76c-1.24-3.13-2.37-5.82-3.39-8.08"/>
      <path class="cls-9" d="M57.82,118.87c-1.08-3.4-2.02-6.25-2.82-8.57"/>
      <path class="cls-10" d="M60.32,117.9c-.86-3.45-1.6-6.41-2.22-8.89"/>
      <path class="cls-10" d="M62.59,117.34c-.7-3.72-1.14-6.87-1.33-9.46"/>
      <path class="cls-10" d="M64.85,116.78c-.48-3.77-.68-6.87-.6-9.3"/>
      <path class="cls-9" d="M67.19,116.53c-.21-3.61-.16-6.6.17-8.97"/>
      <path class="cls-9" d="M69.58,116.46c.08-3.34.31-6.09.69-8.24"/>
      <path class="cls-9" d="M71.96,116.38c.33-3.29.7-5.9,1.14-7.84"/>
      <path class="cls-11" d="M74.35,116.3c.41-2.96.85-5.31,1.34-7.03"/>
    </g>
  </g>
  <g>
    <rect class="cls-36" x="12.96" y="81.46" width="46.65" height="4.67" rx="1" ry="1" transform="translate(-54.73 76.5) rotate(-62)"/>
    <polygon class="cls-18" points="45.18 62.1 49.3 64.3 41.48 79.01 37.36 76.82 45.18 62.1"/>
    <rect class="cls-29" x="35" y="68.22" width="16.66" height="4.67" transform="translate(-39.31 75.69) rotate(-62)"/>
    <polygon class="cls-16" points="37.36 76.82 41.48 79.01 33.66 93.72 29.54 91.53 37.36 76.82"/>
    <rect class="cls-28" x="27.18" y="82.94" width="16.66" height="4.67" transform="translate(-56.45 76.59) rotate(-62)"/>
    <polygon class="cls-15" points="29.54 91.53 33.66 93.72 27.4 105.49 23.28 103.3 29.54 91.53"/>
    <rect class="cls-30" x="21.8" y="96.18" width="13.33" height="4.67" transform="translate(-71.87 77.4) rotate(-62)"/>
    <rect class="cls-5" x="12.96" y="81.46" width="46.65" height="4.67" rx="1" ry="1" transform="translate(-54.73 76.5) rotate(-62)"/>
    <rect class="cls-40" x="32.32" y="86.72" width="2" height="5.33" rx=".3" ry=".3" transform="translate(-61.25 76.84) rotate(-62)"/>
    <rect class="cls-38" x="24.3" y="100.22" width="3.33" height="6" rx=".8" ry=".8" transform="translate(-77.36 77.69) rotate(-62)"/>
    <polygon class="cls-17" points="24.1 100.34 29.4 103.15 27.83 106.1 22.53 103.28 24.1 100.34"/>
    <rect class="cls-32" x="24.3" y="100.22" width="3.33" height="6" transform="translate(-77.36 77.69) rotate(-62)"/>
    <rect class="cls-35" x="38.89" y="49.57" width="30.33" height="1.67" rx=".4" ry=".4" transform="translate(-15.83 74.46) rotate(-62)"/>
    <polygon class="cls-14" points="60.43 36.62 61.9 37.4 47.67 64.18 46.19 63.4 60.43 36.62"/>
    <ellipse class="cls-33" cx="62.11" cy="35.25" rx="3" ry="4.67" transform="translate(1.83 73.54) rotate(-62)"/>
    <ellipse class="cls-42" cx="63.51" cy="32.6" rx="2.33" ry="3.67" transform="translate(4.91 73.37) rotate(-62)"/>
    <ellipse class="cls-43" cx="64.77" cy="30.24" rx="2" ry="3" transform="translate(7.66 73.23) rotate(-62)"/>
    <ellipse class="cls-39" cx="65.86" cy="28.19" rx="1.67" ry="2.33" transform="translate(10.05 73.1) rotate(-62)"/>
    <ellipse class="cls-41" cx="66.64" cy="26.71" rx="1.17" ry="1.67" transform="translate(11.77 73.01) rotate(-62)"/>
    <path class="cls-2" d="M59.34,32.64c2.68.17,4.84,1.31,6.47,3.44"/>
    <path class="cls-2" d="M60.73,30.74c2.48.06,4.44,1.11,5.88,3.13"/>
    <path class="cls-2" d="M62.41,28.99c1.99.05,3.56.88,4.71,2.5"/>
    <path class="cls-12" d="M66.64,26.71c1.99-4.22,3.73-7.96,5.2-11.2"/>
    <ellipse class="cls-19" cx="72.32" cy="14.26" rx="1.33" ry=".83" transform="translate(25.78 71.42) rotate(-62)"/>
  </g>
  <g>
    <rect class="cls-37" x="50.84" y="81.78" width="15" height="26.66" rx=".6" ry=".6" transform="translate(-41.5 144.94) rotate(-85)"/>
    <polygon class="cls-20" points="45.71 86.48 72.27 88.81 71.69 95.44 45.13 93.12 45.71 86.48"/>
    <rect class="cls-25" x="55.37" y="77.63" width="6.66" height="26.66" transform="translate(-37.03 141.52) rotate(-85)"/>
    <polygon class="cls-22" points="45.13 93.12 71.69 95.44 70.97 103.74 44.41 101.42 45.13 93.12"/>
    <rect class="cls-26" x="53.88" y="85.1" width="8.33" height="26.66" transform="translate(-45.07 147.68) rotate(-85)"/>
    <rect class="cls-4" x="50.84" y="81.78" width="15" height="26.66" rx=".6" ry=".6" transform="translate(-41.5 144.94) rotate(-85)"/>
    <rect class="cls-38" x="56.33" y="83.77" width="3.67" height="26.66" transform="translate(-43.64 146.59) rotate(-85)"/>
    <polygon class="cls-23" points="45.05 94.12 71.61 96.44 71.46 98.1 44.9 95.78 45.05 94.12"/>
    <rect class="cls-31" x="57.42" y="82.78" width="1.67" height="26.66" transform="translate(-42.57 145.76) rotate(-85)"/>
    <rect class="cls-34" x="56.7" y="80.3" width="4" height="21.33" rx=".3" ry=".3" transform="translate(-37.03 141.52) rotate(-85)"/>
    <path class="cls-6" d="M49.47,89.49c6.26-.23,12.46.31,18.59,1.63"/>
    <path class="cls-13" d="M50.81,89.44c-.1-1.46-.22-2.64-.36-3.54"/>
    <path class="cls-13" d="M52.83,89.28c-.1-1.46-.22-2.64-.36-3.54"/>
    <path class="cls-13" d="M54.84,89.29l.32-3.65"/>
    <path class="cls-8" d="M56.84,89.29c.36-1.53.68-2.73.98-3.59"/>
    <path class="cls-8" d="M58.83,89.47c.58-1.51,1.02-2.7,1.32-3.56"/>
    <path class="cls-13" d="M60.81,89.81c.8-1.49,1.35-2.67,1.65-3.54"/>
    <path class="cls-13" d="M62.79,90.15c.79-1.38,1.33-2.5,1.63-3.37"/>
    <path class="cls-13" d="M65.08,90.68c.78-1.27,1.31-2.28,1.6-3.04"/>
    <path class="cls-37" d="M45.71,86.48c.43-4.87,2.04-8.07,4.86-9.61l19.25,1.68c2.06,1.96,2.87,5.38,2.45,10.25l-26.56-2.32Z"/>
    <path class="cls-21" d="M45.71,86.48c.43-4.87,2.04-8.07,4.86-9.61l19.25,1.68c2.06,1.96,2.87,5.38,2.45,10.25l-26.56-2.32Z"/>
    <path class="cls-27" d="M45.71,86.48c.43-4.87,2.04-8.07,4.86-9.61l19.25,1.68c2.06,1.96,2.87,5.38,2.45,10.25l-26.56-2.32Z"/>
    <path class="cls-4" d="M45.71,86.48c.43-4.87,2.04-8.07,4.86-9.61l19.25,1.68c2.06,1.96,2.87,5.38,2.45,10.25l-26.56-2.32Z"/>
    <rect class="cls-38" x="58.18" y="70.34" width="2.67" height="22.66" rx=".3" ry=".3" transform="translate(-27.03 133.84) rotate(-85)"/>
    <polygon class="cls-24" points="48.35 79.35 70.92 81.33 70.82 82.49 48.24 80.51 48.35 79.35"/>
    <rect class="cls-31" x="59" y="69.59" width="1.17" height="22.66" transform="translate(-26.22 133.22) rotate(-85)"/>
  </g>
</svg>