<?xml version="1.0" encoding="UTF-8"?>
<svg id="Layer_1" data-name="Layer 1" xmlns="http://www.w3.org/2000/svg" xmlns:xlink="http://www.w3.org/1999/xlink" viewBox="0 0 108 135">
  <defs>
    <style>
      .cls-1, .cls-2, .cls-3, .cls-4, .cls-5, .cls-6, .cls-7, .cls-8, .cls-9, .cls-10, .cls-11 {
        fill: none;
      }

      .cls-12 {
        opacity: .65;
      }

      .cls-12, .cls-13, .cls-14, .cls-15, .cls-16, .cls-2, .cls-17, .cls-18, .cls-3, .cls-19, .cls-5, .cls-20, .cls-21, .cls-22, .cls-23, .cls-9, .cls-10, .cls-11 {
        isolation: isolate;
      }

      .cls-12, .cls-13, .cls-15 {
        fill: url(#htD_3);
      }

      .cls-13 {
        opacity: .7;
      }

      .cls-14 {
        fill: url(#htB_4);
      }

      .cls-14, .cls-15, .cls-16 {
        opacity: .9;
      }

      .cls-16 {
        fill: url(#htA_3);
      }

      .cls-2 {
        stroke: #8a6410;
        stroke-dasharray: .8 .5;
      }

      .cls-2, .cls-17, .cls-20, .cls-10 {
        opacity: .5;
      }

      .cls-2, .cls-5 {
        stroke-width: .2px;
      }

      .cls-17, .cls-18, .cls-24 {
        fill: #c89820;
      }

      .cls-25, .cls-19 {
        fill: #d4aa28;
      }

      .cls-18 {
        opacity: .36;
      }

      .cls-3 {
        opacity: .4;
        stroke-width: .25px;
      }

      .cls-3, .cls-5 {
        stroke: #ecd048;
      }

      .cls-3, .cls-5, .cls-7, .cls-8, .cls-9, .cls-11 {
        stroke-linecap: round;
      }

      .cls-4, .cls-7, .cls-8 {
        stroke: #c8a96e;
      }

      .cls-4, .cls-7, .cls-9, .cls-11 {
        stroke-width: .3px;
      }

      .cls-19, .cls-21 {
        opacity: .42;
      }

      .cls-5 {
        opacity: .38;
      }

      .cls-6, .cls-10 {
        stroke: #8a1c00;
        stroke-width: .1px;
      }

      .cls-26, .cls-21 {
        fill: #1e1e1e;
      }

      .cls-27, .cls-20 {
        fill: #d4c4a8;
      }

      .cls-8 {
        stroke-width: .35px;
      }

      .cls-22 {
        opacity: .62;
      }

      .cls-22, .cls-23 {
        fill: #c09018;
      }

      .cls-23 {
        opacity: .74;
      }

      .cls-28, .cls-29 {
        fill: #b32600;
      }

      .cls-29 {
        opacity: .78;
      }

      .cls-9 {
        opacity: .3;
        stroke: #fff;
      }

      .cls-30 {
        fill: #0c0c0c;
      }

      .cls-11 {
        opacity: .45;
        stroke: #e8c840;
      }
    </style>
    <pattern id="htD_3" data-name="htD 3" x="0" y="0" width=".7" height=".7" patternTransform="translate(1168.5 635.5) scale(1 -1)" patternUnits="userSpaceOnUse" viewBox="0 0 .7 .7">
      <g>
        <rect class="cls-1" width=".7" height=".7"/>
        <circle class="cls-30" cx=".35" cy=".35" r=".05"/>
      </g>
    </pattern>
    <pattern id="htA_3" data-name="htA 3" x="0" y="0" width=".7" height=".7" patternTransform="translate(1168.5 635.5) scale(1 -1)" patternUnits="userSpaceOnUse" viewBox="0 0 .7 .7">
      <g>
        <rect class="cls-1" x="0" width=".7" height=".7"/>
        <circle class="cls-30" cx=".35" cy=".35" r=".28"/>
      </g>
    </pattern>
    <pattern id="htB_4" data-name="htB 4" x="0" y="0" width=".7" height=".7" patternTransform="translate(1168.5 635.5) scale(1 -1)" patternUnits="userSpaceOnUse" viewBox="0 0 .7 .7">
      <g>
        <rect class="cls-1" width=".7" height=".7"/>
        <circle class="cls-30" cx=".35" cy=".35" r=".19"/>
      </g>
    </pattern>
  </defs>
  <g>
    <g>
      <polygon class="cls-15" points="64.95 53.35 90.42 80.28 78.8 91.27 53.33 64.33 64.95 53.35"/>
      <rect class="cls-23" x="54.05" y="65.06" width="37.07" height="15.99" transform="translate(75.8 -29.88) rotate(46.6)"/>
    </g>
    <g>
      <polygon class="cls-15" points="23.71 78.21 43.78 47.04 57.22 55.7 37.15 86.86 23.71 78.21"/>
      <rect class="cls-23" x="22.49" y="58.09" width="37.07" height="15.99" transform="translate(-36.75 64.78) rotate(-57.21)"/>
    </g>
    <g>
      <path class="cls-24" d="M33.89,60.6c0-22.92,7.74-37.25,23.21-42.98,15.47,5.73,23.21,20.06,23.21,42.98h-46.42Z"/>
      <rect class="cls-16" x="33.89" y="26.21" width="46.42" height="17.19"/>
      <rect class="cls-18" x="33.89" y="26.21" width="46.42" height="17.19"/>
      <rect class="cls-14" x="33.89" y="43.41" width="46.42" height="17.19"/>
      <rect class="cls-17" x="33.89" y="43.41" width="46.42" height="17.19"/>
      <path class="cls-25" d="M36.47,47.71c3.72-8.88,8.45-13.9,14.18-15.04,2.58-.29,4.73.14,6.45,1.29,1.72-1.15,3.87-1.58,6.45-1.29,5.73,1.15,10.46,6.16,14.18,15.04-3.72-2.87-7.38-5.16-10.96-6.88-3.58-1.15-6.81-1.43-9.67-.86-2.87-.57-6.09-.29-9.67.86-3.58,1.72-7.24,4.01-10.96,6.88Z"/>
      <path class="cls-14" d="M36.47,47.71c3.72-8.88,8.45-13.9,14.18-15.04,2.58-.29,4.73.14,6.45,1.29,1.72-1.15,3.87-1.58,6.45-1.29,5.73,1.15,10.46,6.16,14.18,15.04-3.72-2.87-7.38-5.16-10.96-6.88-3.58-1.15-6.81-1.43-9.67-.86-2.87-.57-6.09-.29-9.67.86-3.58,1.72-7.24,4.01-10.96,6.88Z"/>
      <path class="cls-19" d="M36.47,47.71c3.72-8.88,8.45-13.9,14.18-15.04,2.58-.29,4.73.14,6.45,1.29,1.72-1.15,3.87-1.58,6.45-1.29,5.73,1.15,10.46,6.16,14.18,15.04-3.72-2.87-7.38-5.16-10.96-6.88-3.58-1.15-6.81-1.43-9.67-.86-2.87-.57-6.09-.29-9.67.86-3.58,1.72-7.24,4.01-10.96,6.88Z"/>
      <path class="cls-3" d="M61.4,24.93c.57,13.75,1,28.51,1.29,44.27"/>
      <path class="cls-11" d="M66.56,27.93c1.15,13.18,2.01,26.93,2.58,41.26"/>
    </g>
    <g>
      <rect class="cls-27" x="53.69" y="96.02" width="9.46" height="12.46" rx=".9" ry=".9"/>
      <ellipse class="cls-27" cx="58.42" cy="71.64" rx="20.63" ry="24.93"/>
      <ellipse class="cls-12" cx="57.77" cy="72.62" rx="20.63" ry="24.93"/>
      <rect class="cls-13" x="53.88" y="96.05" width="9.46" height="12.46"/>
      <ellipse class="cls-20" cx="57.1" cy="71.64" rx="20.63" ry="24.93"/>
      <path class="cls-28" d="M55.17,88.31c1.29-1,2.44-1.36,3.44-1.07,1-.29,2.15.07,3.44,1.07-1,1.43-2.15,2.29-3.44,2.58-1.29-.29-2.44-1.15-3.44-2.58Z"/>
      <path class="cls-6" d="M55.17,88.31c1.29-1,2.44-1.36,3.44-1.07,1-.29,2.15.07,3.44,1.07"/>
    </g>
    <g>
      <polygon class="cls-16" points="55.17 88.31 62.05 88.31 58.61 90.89 56.58 90.41 55.17 88.31"/>
      <path class="cls-29" d="M54.69,88.26c1.43-1.15,2.72-1.58,3.87-1.29,1.15-.29,2.44.14,3.87,1.29-1.15,1.72-2.44,2.79-3.87,3.22-1.43-.43-2.72-1.5-3.87-3.22Z"/>
      <path class="cls-6" d="M54.69,88.26c1.43-1.15,2.72-1.58,3.87-1.29,1.15-.29,2.44.14,3.87,1.29"/>
      <path class="cls-10" d="M54.69,88.26c.86-.57,1.79-.64,2.79-.21.72-.57,1.43-.57,2.15,0,1-.43,1.93-.36,2.79.21"/>
    </g>
    <g>
      <g>
        <circle class="cls-26" cx="68.66" cy="70.03" r="9.89"/>
        <circle class="cls-16" cx="68.66" cy="69.89" r="9.89"/>
        <circle class="cls-21" cx="68.66" cy="69.89" r="9.89"/>
        <circle class="cls-4" cx="68.66" cy="70.32" r="9.89"/>
        <path class="cls-9" d="M63.08,64.73c1.15-1.72,2.72-2.15,4.73-1.29"/>
        <path class="cls-8" d="M65.65,69.89c1-.86,2.01-1.29,3.01-1.29"/>
        <path class="cls-7" d="M78.55,69.89c2.01-.29,3.72-.14,5.16.43"/>
      </g>
      <g>
        <circle class="cls-26" cx="47.84" cy="70.25" r="9.89"/>
        <circle class="cls-16" cx="47.81" cy="70.11" r="9.89"/>
        <circle class="cls-21" cx="47.81" cy="70.11" r="9.89"/>
        <circle class="cls-4" cx="47.9" cy="70.53" r="9.89"/>
        <path class="cls-9" d="M47.44,63.62c1.81-1.22,3.44-1.1,4.89.37"/>
        <path class="cls-8" d="M47.57,68.84c.98-.19,2.05.04,3.2.7"/>
        <path class="cls-7" d="M33.12,73.38c1.3-.83,2.96-1.3,4.98-1.4"/>
      </g>
    </g>
    <rect class="cls-22" x="33.89" y="39.95" width="46.42" height="23.64"/>
    <g>
      <polygon class="cls-15" points="65.3 39.17 90.77 66.11 79.16 77.09 53.69 50.15 65.3 39.17"/>
      <rect class="cls-23" x="54.4" y="50.89" width="37.07" height="15.99" transform="translate(65.61 -34.57) rotate(46.6)"/>
    </g>
    <g>
      <polygon class="cls-15" points="63.08 56.05 30.84 74.35 22.94 60.45 55.18 42.15 63.08 56.05"/>
      <rect class="cls-23" x="23.58" y="50.77" width="37.07" height="15.99" transform="translate(107.75 89.06) rotate(150.41)"/>
    </g>
  </g>
  <g>
    <path class="cls-11" d="M30.45,69.08c-1.15,13.18-2.01,26.93-2.58,41.26"/>
    <path class="cls-3" d="M35.61,66.07c-.86,13.75-1.43,28.51-1.72,44.27"/>
    <path class="cls-5" d="M39.91,64.78c-.29,14.61-.43,29.8-.43,45.56"/>
    <line class="cls-2" x1="39.91" y1="58.77" x2="39.91" y2="88.85"/>
  </g>
</svg>